<?xml version="1.0" standalone="no"?> <!DOCTYPE svg PUBLIC "-//W3C//DTD SVG 1.0//EN" "http://www.w3.org/TR/2001/REC-SVG-20010904/DTD/svg10.dtd" > <svg xmlns="http://www.w3.org/2000/svg" width="100%" height="100%">
<defs >
<font id="forelle" horiz-adv-x="257" ><font-face
    font-family="Forelle"
    units-per-em="1000"
    panose-1="2 0 5 3 2 0 0 2 0 2"
    ascent="850"
    descent="-200"
    alphabetic="0" />
<missing-glyph horiz-adv-x="0" />
<glyph unicode=" " glyph-name="space" horiz-adv-x="233" />
<glyph unicode="!" glyph-name="exclam" horiz-adv-x="166" d="M92 455L85 393L79 334Q77 317 67 265Q62 239 60 224T56 204Q53 186 48 168T39 139Q36 133 36 130Q36 124 45 117Q56 110 62 110Q70 110 74 116T86 149Q91 165 97 188T110 236T121 285T130 327Q139
371 142 385L156 440Q158 447 159 453T160 464Q160 471 159 480T156 498Q154 505 151 508T142 517Q131 524 123 528T111 533Q100 533 97 500L92 455ZM84 32Q84 49 73 61T44 74Q30 74 19 61T7 31Q7 14 17 4T45 -7Q62 -7 73 4T84 32Z" />
<glyph unicode="&quot;" glyph-name="quotedbl" horiz-adv-x="234" d="M133 665Q133 684 107 684Q68 684 68 664V651Q68 649 69 648V644Q69 609 66 593Q65 588 64 581T61 566Q59 556 59 555Q59 541 76 541Q105 541 125 628Q127 635 127 639T129 646Q133 657 133
665ZM227 665Q227 684 200 684Q161 684 161 664Q161 654 162 651V644Q162 640 162 633Q162 627 161 619Q160 602 160 593T154 566Q152 556 152 555Q152 541 169 541Q198 541 218 628Q220 635 221 639T223 646Q227 662 227 665Z" />
<glyph unicode="$" glyph-name="dollar" horiz-adv-x="433" d="M427 486Q427 544 361 589L374 629L376 636Q379 643 379 648Q379 655 371 660T352 665Q338 665 331 658T317 630L310 609Q293 612 280 613T255 614Q200 614 165 582T129 499Q129 487 130 475T137
451L197 290L116 48Q102 61 94 70T81 89T72 111T66 141Q63 160 63 181Q63 197 65 208T72 230Q75 239 75 244Q75 251 68 251Q63 251 60 250L22 243Q13 241 10 236T6 214Q6 192 12 165T29 115Q41 86 58 67T108 25L104 12L101 5Q97 -3 97 -13Q97 -27 106 -36T128 -45Q141
-45 149 -35T166 1Q177 0 185 0T201 -1Q238 -1 273 15T331 61Q356 92 356 140Q356 171 347 192L283 350L353 564Q400 531 400 480Q400 455 393 438Q390 429 390 424Q390 417 397 417Q408 417 421 452Q427 470 427 486ZM241 56Q228 39 215 33T174 25L233 200L260
129Q263 123 263 114Q263 83 241 56ZM285 586Q289 586 293 586Q297 586 301 585L251 435L229 485Q220 504 220 526Q220 586 285 586Z" />
<glyph unicode="%" glyph-name="percent" horiz-adv-x="456" d="M320 750L75 24L72 16Q69 7 69 -2Q69 -15 78 -24T100 -34Q122 -34 136 8L378 750L380 757Q382 762 382 769Q382 776 375 780T356 785Q342 785 335 778T320 750ZM449 202Q449 247 429 277T378 307Q365
307 350 300T321 279T293 247T269 207Q246 158 246 108Q246 62 266 31T315 0Q343 0 371 23T419 84Q433 112 441 144T449 202ZM210 646Q210 691 190 721T139 751Q126 751 111 744T82 723T54 691T30 651Q7 602 7 552Q7 506 27 475T76 444Q104 444 132 467T180 528Q194
557 202 588T210 646ZM339 233Q361 281 380 284H382Q400 284 400 251Q400 236 396 213T386 164T371 112T352 63Q342 40 334 30T315 19Q293 19 293 65Q293 76 296 93T307 137Q315 166 323 189T339 233ZM100 677Q122 725 141 728H143Q161 728 161 695Q161 680 157
657T147 608T132 556T113 507Q94 463 76 463Q54 463 54 509Q54 520 57 537T68 581Q76 610 84 634T100 677Z" />
<glyph unicode="&amp;" glyph-name="ampersand" horiz-adv-x="472" d="M407 297Q396 297 393 296T388 288L382 271Q380 263 373 248Q370 240 368 235T363 227Q361 223 358 218T350 208Q345 200 340 200Q335 200 328 209Q326 213 323 217T317 227Q310 239 306 246T299
258Q291 275 285 292T278 315Q278 319 285 325Q288 327 293 330T305 338Q334 358 354 375T385 406Q398 423 405 448T412 501Q412 539 394 560T344 582Q317 582 290 565T236 515Q216 491 207 469T191 413Q185 381 185 357Q185 352 186 345T187 327V324Q187 319 185
317T176 313Q122 298 80 267T19 197Q6 169 6 137Q6 109 17 84T49 40T94 10T149 -1Q180 -1 224 18T305 68Q311 72 312 72Q315 72 320 65Q322 62 326 57T337 44Q348 32 354 25T363 16Q374 3 391 -8Q405 -19 414 -19Q427 -19 440 -2Q446 7 453 16T463 30Q465 36 465
37Q465 41 462 45T451 56Q437 66 418 89Q409 99 402 107T389 122Q372 144 372 150Q372 152 377 160Q386 173 396 198T411 246Q416 268 417 275T418 289Q418 297 407 297ZM341 502V496Q341 470 331 449T295 395Q286 384 279 378T266 372Q255 372 255 410Q255 424
259 443T271 482Q281 508 295 524T324 541Q332 541 336 530T341 502ZM97 160Q97 183 115 206T166 252L186 266Q193 270 196 270Q200 270 203 260Q207 251 217 230T237 192Q257 156 276 134Q282 126 282 123Q282 119 274 111T253 95Q215 69 184 69Q167 69 152 76T124
97T105 126T97 160Z" />
<glyph unicode="&apos;" glyph-name="quotesingle" horiz-adv-x="141" d="M134 665Q134 684 108 684Q69 684 69 664V651Q69 649 70 648V644Q70 609 67 593Q66 588 65 581T62 566Q60 556 60 555Q60 541 77 541Q106 541 126 628Q128 635 128 639T130 646Q134 657 134 665Z" />
<glyph unicode="(" glyph-name="parenleft" horiz-adv-x="196" d="M125 562Q137 598 148 626T172 676L185 698Q190 706 190 712Q190 717 184 722Q180 727 174 727Q157 727 132 687T82 578Q58 512 41 450T16 333Q7 268 7 201Q7 162 10 130T22 69T42 14T73 -38Q91
-65 108 -65Q119 -65 125 -57Q129 -53 129 -48Q129 -41 115 -20Q64 63 64 203Q64 291 79 380T125 562Z" />
<glyph unicode=")" glyph-name="parenright" horiz-adv-x="196" d="M72 100Q60 64 49 36T24 -14L11 -36Q7 -43 7 -49Q7 -55 12 -60T23 -65Q40 -65 64 -25T114 84Q138 150 155 213T180 329Q185 361 187 394T190 461Q190 500 187 532T175 592T154 647T123 700Q105
727 88 727Q77 727 71 719Q67 715 67 710Q67 704 81 682Q106 641 119 585T133 460Q133 372 118 282T72 100Z" />
<glyph unicode="+" glyph-name="plus" horiz-adv-x="449" d="M195 452V262H7V203H195V13H255V203H443V262H255V452H195Z" />
<glyph unicode="," glyph-name="comma" horiz-adv-x="120" d="M97 73Q79 73 65 65T47 46L43 29Q40 15 34 -2T20 -39Q19 -42 17 -48T10 -63Q7 -71 7 -75Q7 -84 19 -84Q45 -84 92 3Q105 27 109 38T114 57Q114 73 97 73Z" />
<glyph unicode="-" glyph-name="hyphen" horiz-adv-x="144" d="M137 129Q137 135 134 137T121 139Q119 139 116 139Q113 139 109 138Q89 135 78 135Q73 135 67 135T55 137Q50 138 46 138T37 139Q21 139 10 115Q7 109 7 100Q7 86 20 86Q22 86 24 86T37 89Q42 89
48 89T60 90H69Q81 90 88 89T100 86Q109 83 113 83Q122 83 129 97T137 129Z" />
<glyph unicode="." glyph-name="period" horiz-adv-x="92" d="M85 34Q85 53 76 65T50 77H46Q29 77 18 65T7 36Q7 19 18 8T47 -3Q85 -3 85 34Z" />
<glyph unicode="/" glyph-name="slash" horiz-adv-x="325" d="M257 717L13 -10L10 -18Q7 -27 7 -36Q7 -50 16 -59T38 -68Q61 -68 74 -26L314 717L316 724Q319 731 319 735Q319 743 311 747T292 752Q278 752 271 745T257 717Z" />
<glyph unicode="0" glyph-name="zero" horiz-adv-x="284" d="M277 271Q277 301 270 326T251 370T221 399T183 410Q165 410 146 400T107 373T69 331T38 278Q22 246 15 212T7 145Q7 115 14 89T33 43T62 12T99 1Q137 1 174 31T237 113Q256 151 266 193T277 271ZM131
312Q161 376 185 379H188Q213 379 213 336Q213 321 209 293T196 231Q180 157 149 85Q123 27 99 27Q70 27 70 88Q70 114 88 183Q109 262 131 312Z" />
<glyph unicode="1" glyph-name="one" horiz-adv-x="179" d="M75 255L73 244L35 28Q35 25 34 22Q33 18 33 12Q33 0 48 0H89Q100 0 104 5T112 27L169 350L172 362Q172 365 172 367T173 373Q173 391 158 391Q153 391 148 388T127 369Q108 351 87 336T39 306Q20 296
20 262Q20 253 28 253Q31 253 36 256L49 264Q67 275 71 275Q77 275 77 267Q77 264 77 262T75 255Z" />
<glyph unicode="2" glyph-name="two" horiz-adv-x="260" d="M7 10Q7 4 12 2T31 0H176Q184 0 188 3T198 14L240 84Q245 94 245 98Q245 100 243 102Q242 103 240 103Q237 103 233 100Q220 90 195 84T140 78Q132 78 120 78T98 79Q91 80 91 85Q91 89 96 96Q108 110
119 121T140 141L181 173Q216 200 235 233T254 299Q254 342 228 370T161 398Q136 398 115 387T77 358T51 314T41 260Q41 227 54 201Q60 188 67 188Q73 188 73 194Q73 197 71 207Q71 210 71 214T70 223Q70 245 75 269T89 314Q100 340 115 355T144 370Q158 370 166
354T175 312Q175 298 172 280T162 245Q154 223 141 203T102 150L69 108Q42 73 25 46T7 10Z" />
<glyph unicode="3" glyph-name="three" horiz-adv-x="266" d="M120 246Q115 246 113 243T107 229L100 205Q100 204 100 203T99 199Q98 196 98 192Q98 181 112 181Q119 181 124 182Q135 184 138 184T143 185Q159 185 159 142Q159 118 154 97T139 59T118 33T92 23Q68
23 54 41T39 90Q39 134 56 165Q59 169 59 174Q59 177 58 178Q56 180 53 180Q42 180 21 145Q7 120 7 90Q7 46 33 21T105 -4Q131 -4 154 6T194 33T222 73T233 122Q233 159 212 188Q205 196 203 200T201 207Q201 212 204 215Q206 217 209 220T220 230Q237 245 248
269T260 317Q260 355 239 377T181 400Q164 400 145 393T109 373T76 343T52 305Q50 301 48 295T42 281Q41 277 39 271V270Q39 262 45 262Q49 262 55 272Q75 311 102 334T155 357Q170 357 180 342T190 303Q190 293 188 281T182 260L175 245Q171 234 163 234Q160 234
154 236L142 241Q139 243 128 245Q125 246 120 246Z" />
<glyph unicode="4" glyph-name="four" horiz-adv-x="277" d="M203 385L198 379L18 153Q7 138 7 127Q7 116 15 112T45 107H48H81H100H113Q119 107 121 103Q124 101 124 95Q124 91 121 78L109 32L107 27Q106 24 106 18Q106 5 119 5H121H127L159 9Q170 11 173 11T180
17Q184 20 185 23T188 36L198 86Q200 99 204 103T218 107H219H228Q239 107 246 115Q248 119 250 123T258 142Q260 147 262 150T266 157Q269 163 269 165T270 172Q270 183 265 183Q263 183 259 181Q246 173 232 173Q222 173 222 181Q222 182 224 190L225 197L264
365Q266 373 266 373Q267 378 267 381T268 387Q268 402 253 402L252 401L236 400Q225 400 223 399Q219 399 215 396Q210 393 203 385ZM83 193L86 196L150 278Q160 289 163 289Q167 289 167 282Q167 278 166 275Q165 273 165 272Q165 271 164 269L146 190Q144 180
140 177T123 174H90Q76 174 76 181Q76 183 77 185T83 193Z" />
<glyph unicode="5" glyph-name="five" horiz-adv-x="261" d="M237 400H229H108Q94 400 89 396T81 377L49 225Q49 223 48 220Q45 208 45 198Q45 185 53 185Q58 185 60 187L70 195Q78 200 89 204T108 208Q131 208 144 192T157 148Q157 123 151 101T135 63T112 38T83
29Q64 29 50 47T36 89Q36 97 38 108T44 126Q48 134 48 139Q48 141 46 145Q44 147 41 147H40Q32 147 19 125Q7 105 7 87Q7 70 14 55T33 28T60 9T93 2Q120 2 146 16T191 53T223 107T235 169Q235 211 215 237T161 264Q148 264 136 261T104 249Q102 247 100 247Q98
247 97 247Q91 247 91 253Q91 255 91 256Q91 258 93 263L108 313Q112 327 115 330T129 334Q133 334 137 334T147 332Q151 331 161 331T189 328Q196 327 201 327T211 326H213Q221 326 224 327T230 334Q239 351 246 369T254 392Q254 401 244 401Q243 401 242 401T237
400Z" />
<glyph unicode="6" glyph-name="six" horiz-adv-x="259" d="M136 282Q155 317 179 350T223 402L243 420Q252 428 252 436Q252 448 243 448Q236 448 211 429T153 380Q115 344 90 311T41 234Q23 199 15 171T7 113Q7 65 32 34T98 3Q135 3 170 28T225 95Q235 114 240
134T246 172Q246 206 231 227T190 248Q177 248 161 242T132 226Q128 222 126 221T122 217Q120 216 116 216Q111 216 111 219Q111 223 114 231Q120 249 124 258T136 282ZM112 165Q129 190 147 190H148Q160 190 167 178T175 146Q175 128 169 105T155 68Q133 28 107
28Q78 28 78 75Q78 95 87 119T112 165Z" />
<glyph unicode="7" glyph-name="seven" horiz-adv-x="262" d="M44 381L42 375L23 333Q21 328 21 327T20 323Q20 316 27 316Q29 316 35 318Q48 324 57 325T87 327Q92 327 97 327Q103 327 109 326Q126 325 136 325T150 324Q160 325 165 325Q170 325 171 325Q182
325 182 317Q182 316 178 308L171 294L158 272Q156 267 153 262T146 249Q142 242 139 238T132 232T121 230T102 229H90Q85 230 78 230Q68 230 64 222Q57 211 57 203Q57 195 68 193H84Q101 193 106 191T112 184Q112 181 109 175Q106 168 104 163T91 137Q86 128 83
121T76 105T68 86T58 62Q53 51 50 42T44 27Q40 20 40 13Q40 5 49 5Q50 5 52 5T56 6L109 12Q119 13 123 16T129 27L134 47L145 85L160 137L170 165Q176 182 179 186T190 192Q195 193 202 193T217 194H219H221Q243 194 243 217Q243 230 225 230H224H213Q197 230 197
239Q197 242 199 248L207 270L222 309L238 346Q243 357 245 363T249 371Q254 380 254 383T255 389Q255 400 241 400H240L64 396Q49 396 44 381Z" />
<glyph unicode="8" glyph-name="eight" horiz-adv-x="254" d="M162 413H155Q133 413 115 405T84 382T63 349T55 309Q55 290 60 274T82 231L86 223Q89 218 89 214Q89 208 76 200Q53 186 36 168Q19 148 13 134T7 96Q7 52 31 26T98 0Q123 0 145 9T183 35T209 74T219
121Q219 141 211 165T188 212Q183 219 183 220Q180 224 180 228Q180 234 192 241Q216 255 231 280T247 332Q247 367 224 390T162 413ZM125 336Q125 357 137 371T170 385Q187 385 199 371T211 338Q211 327 207 312T196 286Q189 275 179 267T164 258Q157 258 146
279Q135 299 130 312T125 336ZM99 26H95Q73 26 62 44T50 95Q50 115 55 129T78 162Q95 182 104 182Q109 182 117 170T136 138Q151 106 151 85Q151 59 137 43T99 26Z" />
<glyph unicode="9" glyph-name="nine" horiz-adv-x="246" d="M239 283Q239 343 214 378T146 413Q121 413 95 396T45 347Q7 297 7 245Q7 204 24 180T71 155Q87 155 102 161T137 183Q139 184 140 184T143 185Q147 185 147 177Q147 170 140 152T120 109Q104 77 86
52T48 8Q46 6 40 1T24 -12Q13 -22 13 -28Q13 -31 16 -34T23 -37Q28 -37 36 -32Q57 -19 72 -8T107 20Q137 47 161 79T203 146T229 215T239 283ZM76 254Q76 279 81 302T94 343T114 371T137 382Q166 382 166 322Q166 298 162 277T149 239T129 214T106 204Q76 204 76
254Z" />
<glyph unicode=":" glyph-name="colon" horiz-adv-x="117" d="M110 184Q110 203 99 215T72 228Q58 228 47 216T33 187V182Q33 146 72 146Q110 146 110 184ZM85 34Q85 53 76 65T50 77H46Q29 77 18 65T7 36Q7 19 18 8T47 -3Q85 -3 85 34Z" />
<glyph unicode=";" glyph-name="semicolon" horiz-adv-x="153" d="M147 197Q147 214 137 224T109 235Q94 235 85 225T75 198Q75 182 85 172T111 162Q127 162 137 171T147 197ZM97 73Q79 73 65 65T47 46L43 29Q40 15 34 -2T20 -39Q19 -42 17 -48T10 -63Q7 -71 7
-75Q7 -84 19 -84Q45 -84 92 3Q105 27 109 38T114 57Q114 73 97 73Z" />
<glyph unicode="=" glyph-name="equal" horiz-adv-x="449" d="M443 275V334H7V275H443ZM443 131V190H7V131H443Z" />
<glyph unicode="?" glyph-name="question" horiz-adv-x="213" d="M127 542H121Q97 542 77 530T41 498T16 450T7 394Q7 360 15 337T34 313Q47 313 47 326Q46 327 46 328Q46 328 43 339Q40 348 40 362Q40 391 47 418T65 465T91 498T123 511Q134 511 141 503T148
480Q148 454 127 412Q121 400 117 391T106 371T89 344T64 304Q37 262 27 237T16 191Q16 161 32 138T69 115Q90 115 108 125T141 152T163 193T171 244Q171 284 158 284Q143 284 140 256Q139 242 134 224T121 192T99 167T75 156Q60 156 60 176Q60 188 66 205T87 243Q95
254 105 268T127 299Q149 329 164 352T189 395T203 431T207 464Q207 498 185 520T127 542ZM102 36Q102 53 91 65T62 78Q48 78 37 65T26 35Q26 18 37 6T63 -6Q78 -6 90 6T102 36Z" />
<glyph unicode="A" glyph-name="A" horiz-adv-x="596" d="M502 231L544 450L548 470Q551 484 554 508T563 570Q565 584 566 596T567 619Q567 650 550 670T506 690Q474 690 431 662T342 582Q319 556 295 525T248 462T207 401T178 352Q170 335 165 330T152 324Q149
324 145 325T132 329Q118 334 106 335T79 337Q42 337 21 324T0 288Q0 268 20 247T73 209Q87 202 92 198T97 187Q97 181 94 174Q83 146 76 124T61 70Q53 38 49 9Q44 -20 41 -45T38 -84Q38 -98 48 -98Q52 -98 60 -95L109 -75Q118 -71 121 -66T124 -47Q124 -38 126
-16T130 25Q134 53 139 80T149 124L157 153Q161 167 166 171T179 176Q182 176 190 175T209 172Q214 171 222 170T241 168Q255 167 263 167T276 166L297 165Q308 164 313 159T331 132Q338 118 342 110T350 94T355 81T361 67Q366 51 368 35L371 12Q372 0 389 0H438Q452
0 457 5T465 27L488 155Q490 168 495 173T518 180L546 184Q557 186 564 191T579 211Q590 231 590 235Q590 237 588 239Q585 242 583 242Q580 242 577 239L562 229Q532 208 513 208Q501 208 501 223Q501 228 502 231ZM457 475L453 459L410 226L408 215Q405 199 401
195T384 189Q375 189 368 189T355 188Q349 187 344 187Q340 187 336 187Q325 187 320 189T308 202Q302 211 296 218T283 232T266 249T241 271Q227 284 221 288Q210 296 210 303Q210 310 214 318L227 348Q242 383 263 422T309 497T358 565T406 617Q433 642 455 642Q476
642 476 613Q476 605 476 597T474 579T470 554T464 517Q461 500 460 490T457 475ZM46 278Q46 298 83 301Q85 302 89 302Q112 302 126 297T140 283Q140 282 136 272Q134 267 132 262T126 250Q117 230 107 230Q94 230 71 246Q46 263 46 278ZM241 242Q267 223 273
215L282 202Q286 198 286 194Q286 188 275 188Q236 188 206 196T176 214Q176 217 178 225L185 246Q187 254 192 259T203 264Q208 264 219 258T241 242ZM341 158Q341 162 350 164L368 165H380Q394 165 394 151Q394 148 394 144Q394 141 393 138Q389 119 389 115Q388
93 379 93Q372 93 362 115Q360 120 357 126T351 138L344 151Q341 155 341 158Z" />
<glyph unicode="B" glyph-name="B" horiz-adv-x="609" d="M354 684L349 682L287 659Q277 655 275 653T270 642Q268 633 267 617T263 583Q260 551 260 545Q259 540 258 534T256 521Q254 514 252 512T245 504Q224 487 204 467T164 426T127 384T97 344Q68 300 45
249T12 152Q9 139 8 125T7 94Q7 49 22 21T62 -7Q85 -7 117 20T184 97Q203 124 218 149T246 201T270 257T294 324Q302 349 308 369T320 411T331 454T342 506T351 542T362 554Q403 580 445 580Q477 580 495 563T513 515Q513 495 501 468T470 420Q454 403 429 383T381
350L359 338Q342 329 333 299Q330 291 329 282T327 269Q327 250 363 237L401 223Q462 200 493 169T525 100Q525 61 498 37T426 13Q401 13 381 22T335 55Q293 96 284 129Q280 145 273 145Q269 145 262 137L236 108Q234 105 233 103T231 98Q231 89 246 72T284 36Q344
-11 414 -11Q451 -11 483 2T540 38T578 91T592 157Q592 250 439 317Q419 326 419 335Q419 343 439 357Q465 374 483 388T527 427Q541 440 552 452T573 477Q587 495 594 515T602 556Q602 591 576 613T506 636Q448 636 377 596Q371 593 367 593Q359 593 359 603Q359
606 359 609Q359 613 360 618Q364 633 366 649T368 675Q368 685 361 685Q357 685 354 684ZM245 457Q245 453 245 448Q245 444 243 439L232 378Q229 361 224 340T212 289Q206 265 201 246T192 212Q180 170 168 140T142 83Q110 27 82 27Q61 27 57 43Q54 53 52 67T50
95Q50 120 59 160T82 238Q114 326 173 401Q196 430 214 448T239 466Q245 466 245 457Z" />
<glyph unicode="C" glyph-name="C" horiz-adv-x="461" d="M214 401Q222 426 234 452T259 503T285 547T309 578L334 604Q340 611 340 614Q340 619 336 619Q331 619 323 614T303 598T280 576T256 550Q234 523 216 492T185 427T165 360T157 297Q157 244 180 211T238
177Q256 177 277 187T320 216T363 261T402 318Q422 353 433 388T453 472Q459 509 459 541Q459 574 451 601T429 647T394 678T350 689Q328 689 303 680T250 655T196 616T144 566Q79 492 43 397T7 205Q7 163 13 132T36 71Q62 22 101 3Q116 -5 138 -9T184 -13Q298
-13 384 93Q400 112 410 129T433 177Q438 190 438 196Q438 204 432 204Q429 204 427 201T419 186Q417 179 398 154Q390 143 383 134T368 117Q357 104 345 92T318 68Q288 43 264 32T216 21Q189 21 166 37T127 81T101 148T91 233Q91 281 103 333T136 436T188 533T254
616Q277 639 299 652T341 665Q366 665 380 645T395 589Q395 565 391 535T379 471T361 404T338 340Q324 308 308 277T279 229Q270 217 258 210T234 203Q215 203 203 225T191 281Q191 304 197 336T214 401Z" />
<glyph unicode="D" glyph-name="D" horiz-adv-x="786" d="M232 24Q238 24 247 21L286 9Q326 -3 362 -8T433 -14Q505 -14 568 11T678 78T752 178T779 302Q779 381 745 448T644 563Q610 588 572 606T494 635Q483 638 480 641T474 654Q469 677 458 677Q449 677 447
670L446 661Q445 651 435 651H431Q409 654 383 655T339 657Q279 657 223 641T120 595Q68 561 43 517T18 412Q18 362 37 319T91 242T174 188T280 160Q290 159 290 153Q290 148 287 144Q273 123 258 102T233 81Q227 81 220 84Q198 91 165 96T110 102Q89 102 71 97T38
83T15 63T7 38Q7 14 30 -1T92 -16Q118 -16 147 -9T199 11Q215 19 220 21T232 24ZM99 49Q107 49 113 49T126 47L156 42Q173 39 173 34Q173 27 153 20L129 12Q119 9 108 7T85 5Q62 5 48 11T33 27Q33 36 52 42T99 49ZM150 243Q88 299 88 384Q88 435 111 479T173 556T266
608T381 627Q403 627 419 625T440 619Q444 615 444 605Q444 589 437 555T421 489Q415 468 407 442T390 388T372 336T356 291Q342 252 332 228T313 189Q307 180 299 180Q283 180 263 185T222 199T182 219T150 243ZM497 22Q474 22 442 27T370 44L325 56Q295 65 295
72Q295 77 316 94Q328 103 343 118T373 151Q379 159 383 160T398 164Q410 165 425 168T454 176T482 185T504 195Q512 200 512 207Q512 212 510 219T504 231Q500 237 496 237Q493 237 490 234L477 222Q470 216 460 211T431 198Q419 194 415 194Q406 194 406 201Q406
206 411 213Q415 220 423 238T439 273Q447 292 454 310T466 345Q477 384 483 427T489 513Q489 542 486 572Q485 582 485 587T484 594Q484 604 491 604Q497 604 504 600L521 591Q601 549 644 473T688 305Q688 247 673 196T631 106T571 45T497 22Z" />
<glyph unicode="E" glyph-name="E" horiz-adv-x="470" d="M94 525Q92 525 89 522L81 510Q73 497 73 497Q72 495 72 490Q72 477 80 463T103 436T135 413T173 398Q191 393 197 390T203 379Q203 371 200 363T193 351Q188 346 183 344T159 334Q84 304 46 257T7 147Q7
72 54 27T179 -18Q215 -18 251 -9T320 18T380 59T428 114Q440 133 449 155T459 187Q459 192 457 194Q454 198 452 198Q450 198 447 195T442 188L429 163Q395 98 341 59T228 20Q199 20 175 30T134 60T107 106T97 165Q97 200 110 232T145 286Q162 303 191 315T255
335Q263 337 267 337T275 339Q281 340 287 344T293 359V361L291 376V380Q291 392 294 398T308 409L333 421Q362 435 387 456T430 502T459 554T470 608Q470 637 452 656T408 676Q356 676 299 619Q270 591 254 565T223 501Q217 485 214 472T209 448Q207 431 204 425T194
419Q177 419 156 432T121 462Q112 475 107 486T100 513Q98 525 94 525ZM417 601V599Q417 560 396 522T339 455Q313 433 302 433Q292 433 292 452Q292 460 294 472T300 502Q308 537 315 558T336 602Q361 647 387 647Q401 647 409 634T417 601Z" />
<glyph unicode="F" glyph-name="F" horiz-adv-x="666" d="M634 571L637 579L660 629Q664 638 664 642Q664 650 653 650H645Q638 649 632 649Q627 649 622 649Q616 649 608 649T589 651L520 658Q484 662 445 663T372 665Q312 665 271 660T193 641Q151 626 115 598T54
535Q31 503 19 464T6 388Q6 352 18 322T52 270T103 236T167 223Q195 223 224 233T282 261T336 304T382 361Q405 397 419 442T433 525Q433 542 426 542Q421 542 419 531Q419 529 419 526T418 517Q412 467 388 422T328 342T250 287T162 266Q99 266 62 300T25 393Q25
427 39 460T81 519Q154 590 311 590Q324 590 348 589T409 586Q436 584 454 584T484 581L533 574Q559 571 559 565Q559 562 554 559T534 551Q533 551 509 539L491 530Q483 526 480 523T474 512Q470 504 467 497T461 482Q458 472 454 459T444 428Q438 410 434 396T427
371L413 316Q405 287 401 270T395 248Q390 228 388 220T382 210Q380 207 352 204Q332 202 326 200T317 192T313 178T311 167Q311 160 321 160Q324 160 328 160Q332 160 337 161Q343 163 347 163Q352 163 356 163Q373 163 373 152Q373 150 371 142Q369 136 365 121Q358
98 351 69T340 21Q334 -14 334 -45Q334 -71 341 -93T360 -131T388 -157T424 -167Q444 -167 461 -156T492 -125T514 -81T522 -26Q522 -7 519 15T511 60T498 105T482 147Q480 151 480 153Q480 160 493 160Q498 160 504 160T518 158L557 154Q568 153 575 152T588 149Q593
148 597 148T605 147Q616 147 620 156L634 186Q637 190 637 195Q637 201 629 203T599 206Q592 206 552 209Q539 210 528 210Q518 210 508 210H506Q490 210 485 212T480 223Q480 225 480 231T483 243L497 295Q503 317 508 335T520 373T535 420T556 485Q561 500 565
513T574 537Q586 565 599 565H601L615 563Q617 562 620 562Q631 562 634 571ZM410 -108Q410 -96 412 -79T417 -42T425 0T435 43L447 90Q456 122 461 122Q464 122 468 113T476 90Q486 43 486 14Q486 -26 477 -64T453 -124Q441 -140 430 -140Q410 -140 410 -108Z"
/>
<glyph unicode="G" glyph-name="G" horiz-adv-x="504" d="M460 246L455 244L410 236Q402 234 399 232T392 221Q378 191 350 155T288 91Q233 44 187 44Q143 44 121 78T98 178Q98 212 105 253Q113 298 125 336T158 422Q179 470 204 508T255 574T307 617T357 632Q420
632 420 550Q420 486 396 414T329 276Q276 198 239 198Q206 198 206 238Q206 256 211 279T225 327T248 380T276 432Q297 467 323 499T369 547Q382 556 382 561Q382 567 375 567Q370 567 366 564Q345 553 328 541T290 509Q257 477 236 448T200 384Q189 358 183 329T176
279Q176 229 197 200T253 170Q270 170 289 177T329 198T368 230T403 272Q439 323 459 382T480 496Q480 569 448 612T360 655Q315 655 266 629T166 551Q125 510 97 466T46 361Q26 310 17 266T7 182Q7 141 16 107T41 48T81 10T133 -4Q161 -4 201 12T279 55Q286 60
293 65T310 78Q328 92 330 96Q335 102 337 103T342 105Q347 105 347 99Q347 97 345 87Q343 82 342 77T339 65Q335 51 332 47T319 35Q305 26 283 5T240 -38Q222 -58 209 -83Q199 -105 199 -127Q199 -169 235 -169Q249 -169 269 -161T312 -137Q328 -126 341 -115T364
-89T384 -58T404 -17Q409 -4 413 8T421 31Q425 46 427 52Q429 55 430 57T433 62Q439 70 454 70Q459 70 469 68Q472 67 477 67Q482 67 486 74T490 90Q490 101 475 101Q473 101 469 101T459 99Q457 98 453 98Q443 98 443 107Q443 110 444 116T447 127Q450 140 459
173Q464 190 467 201T473 218Q478 230 478 238Q478 246 467 246H460ZM250 -66Q257 -53 268 -37T288 -15L305 -2Q309 2 314 2Q317 2 317 -2Q317 -5 316 -11T311 -30L303 -59Q281 -141 248 -141Q233 -141 233 -116Q233 -108 238 -93T250 -66Z" />
<glyph unicode="H" glyph-name="H" horiz-adv-x="706" d="M396 388L446 591L449 601Q452 612 453 618T456 626Q458 634 460 641T467 654Q472 664 472 664Q474 668 474 671V672Q474 679 464 679Q453 679 428 676T370 666Q322 657 276 637T189 587Q170 573 156 560T131
532T112 501T96 464T85 425T81 390Q81 376 84 361T92 332Q95 324 99 324Q104 324 104 331V332Q104 341 103 346T102 353V357Q102 382 111 410T135 467T173 522T221 571Q249 594 273 608T331 633Q338 636 344 636Q354 636 354 626Q354 622 352 614T349 603L285 342Q281
327 278 323T264 314Q206 294 159 267T78 209T26 145T7 78Q7 35 28 11T87 -13Q132 -13 179 13T268 90Q300 128 327 181T371 296Q376 312 377 316T381 324Q386 331 408 338L427 344Q434 347 439 347Q446 347 446 339Q446 338 446 335Q446 333 445 329L441 308L435
272Q430 247 427 213T424 152Q424 77 446 38T513 -1Q533 -1 552 7T594 35Q604 43 611 50T626 65T642 83T661 108L686 141Q692 149 693 153T695 165Q695 167 695 170T696 176V195Q696 203 695 209T691 215Q689 215 682 197L674 175Q665 150 653 129T626 91T598 66T570
57Q546 57 532 85T517 161Q517 168 518 181T521 211T525 245T530 280Q534 306 542 347Q547 375 549 384T554 397Q557 401 564 407Q573 413 578 416T585 421Q593 427 602 436T622 456Q652 487 667 513Q681 536 690 567T699 625Q699 647 693 661T675 676Q666 676
653 670T624 654T592 630T562 601Q524 560 501 516T466 417Q461 396 460 391T456 382Q455 380 447 377Q427 369 416 366T399 362Q392 362 392 370Q392 375 393 378Q396 385 396 388ZM643 634Q657 634 657 606V604Q657 589 653 571T640 534T620 497T597 466Q576
443 569 443Q565 443 565 450Q565 458 571 482T589 538Q606 589 619 611T643 634ZM33 59Q33 83 46 110T81 164T134 214T199 255L247 278Q251 280 254 281T261 283H262Q268 283 268 276Q268 273 266 267Q265 265 265 261T262 251Q246 195 226 150T183 73T135 24T85
6Q61 6 47 20T33 59Z" />
<glyph unicode="I" glyph-name="I" horiz-adv-x="523" d="M471 374Q472 380 472 383Q472 386 472 387L493 544Q498 582 502 606T512 646L515 656Q516 658 516 661Q516 667 508 668H500Q498 669 495 669Q437 669 385 648T292 590T228 505T204 405Q204 375 213 343T239
280T278 223T328 179Q338 173 338 166Q338 156 328 134Q325 127 322 121T315 107Q290 64 275 51Q258 34 226 23T163 11Q118 11 91 33T63 91Q63 112 74 131T103 165T145 188T196 197Q207 197 215 196T236 191Q242 189 243 189Q250 189 250 196Q250 205 217 213Q198
217 180 217Q144 217 113 208T57 182T20 144T6 97Q6 48 46 20T156 -9Q192 -9 221 -2T283 24Q297 32 310 40T334 59Q350 73 378 106Q391 119 397 128Q407 141 414 141Q417 141 425 138Q429 137 437 135T457 132Q461 131 468 131Q486 131 491 142L496 152Q499 156
499 159Q499 165 493 165Q491 165 481 161Q475 159 470 158T452 157Q434 157 428 159T421 168Q421 170 425 178Q427 183 431 196T439 221Q443 232 446 248T455 286Q461 315 465 336T471 374ZM405 550L395 483L387 413Q385 401 383 385T378 348Q374 322 371 302T365
266L356 219Q352 198 342 198Q331 198 312 221T277 274Q266 294 260 322T254 380Q254 438 278 496T342 593Q354 604 367 613T399 628Q403 631 409 631Q417 631 417 621Q417 619 416 613T413 601Q412 595 410 583T405 550Z" />
<glyph unicode="J" glyph-name="J" horiz-adv-x="470" d="M400 327L403 342L432 511Q432 512 434 520Q434 524 443 574Q447 597 451 617T461 653Q463 657 463 664Q463 674 444 674Q388 674 349 664T272 628Q209 586 176 525T142 392Q142 342 159 296T208 219Q215
212 225 204T251 184Q258 178 267 173Q272 169 274 167T276 158Q276 150 272 131Q266 101 255 68T233 10Q217 -26 191 -47T135 -68Q102 -68 78 -46T53 7V21Q51 28 48 28Q46 28 42 23L10 -16Q7 -19 7 -24Q7 -29 11 -34T26 -48Q39 -58 48 -64T65 -74T80 -80T97 -85Q105
-87 113 -88T129 -89Q174 -89 217 -65T293 2Q310 25 322 47T347 102Q348 106 350 112T356 129Q360 140 369 141Q370 141 373 141Q376 141 381 142H404Q424 142 432 145T444 155Q448 165 448 176Q448 184 442 184Q438 184 434 181Q424 173 410 169T381 165Q370 165
370 174Q370 182 373 194Q378 214 381 228T386 252L400 327ZM344 560Q335 513 332 494L320 420Q318 409 315 392T307 349Q303 328 301 313T296 283T291 255T287 225Q285 208 283 204T275 199Q264 199 244 224Q228 242 215 267Q193 312 193 371Q193 446 221 508T298
608Q315 620 329 628T350 636Q357 636 357 627Q357 624 355 614Q354 612 354 608T351 596Q349 588 348 580T344 560Z" />
<glyph unicode="K" glyph-name="K" horiz-adv-x="786" d="M470 354L500 520L503 535Q506 552 511 578T521 624Q524 641 530 650Q534 660 534 663Q534 671 518 671Q514 671 508 671Q502 671 494 670Q459 665 435 661Q348 643 283 591Q251 565 227 535T192 476Q186
459 183 439T180 395Q180 361 187 332T211 272Q220 253 225 253Q229 253 229 258Q229 262 223 276Q215 293 213 306T210 337Q210 352 211 370T218 406Q226 439 238 465T271 520Q296 554 323 577T382 617Q404 628 414 628Q420 628 420 622Q420 616 417 607L413 587L403
538L400 520L366 335Q365 332 363 321Q356 287 353 267T348 241Q343 216 337 193T323 149Q311 113 290 79Q246 8 162 8Q115 8 86 31T56 89Q56 111 66 129T95 162T139 184T193 192Q205 192 215 190T232 186L251 179Q254 177 259 177Q264 177 264 182Q264 189 253
193Q233 201 210 206T165 211Q133 211 104 202T54 176T19 138T6 93Q6 70 18 51T50 18T99 -5T160 -13Q208 -13 255 5T343 58Q367 79 381 98T411 149Q426 181 431 199Q435 210 436 216T439 225T442 230T446 238T449 245T452 249L464 263Q472 272 475 274T483 277Q496
277 513 250Q520 238 525 229T536 210T546 187T559 156L583 94Q598 56 607 39T631 9Q637 3 642 1T656 -1Q667 -1 675 3T700 21Q718 37 725 46Q732 53 744 69T768 104Q779 120 779 128Q779 132 772 145Q766 157 760 157Q753 157 751 144L749 130Q748 117 734 93Q725
76 715 76Q702 76 692 97Q682 116 672 140T652 191Q644 213 639 226T630 248T621 266T609 286Q596 307 585 320T561 345Q553 351 553 356Q553 360 569 379L761 605Q764 608 765 610T768 613Q771 617 771 621Q771 626 762 632L718 666Q709 672 703 672Q697 672 691
662L487 343Q473 322 470 322Q466 322 466 330Q466 338 467 342Q468 345 470 354Z" />
<glyph unicode="L" glyph-name="L" horiz-adv-x="568" d="M414 72L367 73L310 75L260 81Q233 84 225 87T217 97Q217 101 220 104L227 116Q234 126 245 146Q255 166 262 183T276 215Q280 226 288 249T307 308L339 414Q351 453 357 475T366 503Q373 523 380 542T396
578Q402 592 410 603T427 626Q445 649 464 649Q481 649 492 626T503 569Q503 552 502 532T497 494Q495 482 491 466T481 433T470 397T458 362Q448 337 436 313T411 268T386 232T363 211T351 203T349 197Q349 191 355 191H356Q363 193 370 197Q398 215 420 235T462
281Q484 309 502 342T533 410T554 478T562 541Q562 569 556 593T538 636T511 664T478 675Q417 675 349 610Q317 579 291 540T248 459Q240 440 234 415T220 357L199 259Q189 214 179 174T161 117Q157 105 145 105Q137 105 119 108Q113 110 105 110Q98 110 88 110Q35
110 1 91T-33 40Q-33 20 -10 7T48 -6Q68 -6 89 0T128 16L150 28Q164 36 170 36Q175 36 184 33Q204 27 219 23T248 15T274 9T301 3Q318 -1 333 -3T362 -8Q379 -10 395 -11T430 -13Q449 -13 458 -13T470 -10Q475 -9 484 4L531 73Q539 85 539 88Q539 93 532 93Q527
93 521 90Q510 85 485 81Q440 72 414 72ZM-2 43Q-2 51 15 57T53 63Q67 63 81 60Q93 58 99 57T107 55Q123 54 123 47Q123 42 115 38T84 29Q59 24 42 24Q24 24 11 29T-2 43Z" />
<glyph unicode="M" glyph-name="M" horiz-adv-x="812" d="M758 528L780 578L798 622Q806 641 806 648Q806 658 800 665T784 672Q756 672 703 630T586 515Q575 503 569 496T561 487Q552 478 550 475Q544 468 542 468Q538 468 538 474Q538 479 539 482Q550 510 556
543T562 608Q562 638 551 657T522 677Q481 677 427 610Q411 590 398 571T373 531T348 484T322 428L265 299Q233 227 205 172T145 65Q115 15 89 -15T34 -66Q-4 -94 -50 -94Q-66 -94 -82 -89T-110 -75Q-115 -72 -116 -72Q-122 -72 -129 -82Q-133 -90 -133 -95Q-133
-103 -110 -108T-54 -114Q-23 -114 10 -104T76 -75T140 -29T198 32Q236 79 268 135T336 268Q343 283 354 310T379 369T407 435T433 499Q458 560 469 582L490 622Q503 647 514 647Q519 647 522 641T525 626Q525 623 525 620T524 614Q523 586 521 574Q519 551 513
521T493 438Q485 407 481 391T475 369T464 349Q451 329 443 316T429 293T418 273T406 248Q398 230 390 212T375 176Q363 144 358 120T353 67Q353 34 363 13T390 -8Q404 -8 417 4T442 37T461 86T473 146L477 184Q479 196 480 203T486 224Q495 247 506 273Q515 294
526 317T550 362T575 406T600 445Q603 450 615 467T650 515Q666 538 677 552T694 573Q710 594 733 615Q744 626 751 630T763 635Q771 635 771 628Q771 621 763 610Q759 605 754 596T741 574Q726 551 717 536T703 513Q678 471 657 430T618 350Q583 273 565 210T547
101Q547 56 571 25Q583 8 594 2T628 -4Q650 -4 668 3T710 27Q740 49 762 75Q779 97 791 117T803 147Q803 154 801 159Q796 176 795 181T793 192Q793 198 789 198Q784 198 784 187Q780 157 771 132T748 87T718 57T683 46Q648 46 648 120Q648 133 650 152T655 192T662
236T672 280Q676 295 680 309T691 342T705 386T728 449Q745 499 758 528Z" />
<glyph unicode="N" glyph-name="N" horiz-adv-x="515" d="M505 150V163L502 176Q500 187 496 187Q491 187 490 177Q488 169 482 153T466 121Q457 104 448 93Q431 72 413 58T381 44Q353 44 353 106Q353 123 355 148T362 195Q365 210 369 229T380 271T392 317T406
362Q411 378 417 398T433 443Q439 459 443 471T452 494Q457 509 463 524T476 553Q493 589 496 596Q499 602 501 608T506 623Q508 633 508 637Q508 663 481 663Q466 663 442 648T380 601Q353 578 329 555T277 499Q266 488 259 479T247 464Q239 453 235 449T228 444Q224
444 224 450Q224 452 226 460Q229 466 232 479T238 507Q241 524 242 540T244 567Q244 589 239 608T224 643T203 666T176 675Q162 675 146 665T111 636T76 592T45 539Q7 462 7 383Q7 330 22 285Q26 273 28 266T31 257Q32 247 39 247Q43 247 43 251Q43 256 40 261Q36
270 33 293T29 338V344Q29 390 53 458Q64 492 80 527T107 581Q125 611 142 628T171 646Q201 646 201 546Q201 497 187 433Q179 398 170 373T144 318L106 249Q93 226 83 201T64 152T52 106T47 67Q47 34 55 16T81 -2Q95 -2 109 13T135 53T157 110T170 178Q172 189
172 196T174 208Q175 210 176 213T179 222Q182 231 185 238Q190 251 200 271T225 317T256 368T288 418Q303 441 319 464T351 508T379 546T401 573Q408 581 415 589T433 606Q455 625 465 625Q471 625 471 619Q471 612 465 602L452 583Q444 571 428 544Q415 522 406
507T391 482Q361 430 337 379T296 283Q277 232 267 184T256 100Q256 51 276 23T329 -6Q360 -6 398 20T478 93Q506 127 506 139L505 150Z" />
<glyph unicode="O" glyph-name="O" horiz-adv-x="525" d="M552 493Q552 534 545 568T524 626T491 663T449 677Q420 677 384 654T319 595Q287 553 269 498T250 380Q250 351 253 319T264 265Q266 257 269 248T277 229Q284 214 291 214Q297 214 297 221Q297 226 294
234Q286 254 281 282T275 334Q275 354 279 386T290 445T306 500T330 555Q347 589 365 607T401 626Q424 626 439 590T454 495Q454 460 448 417T431 330T406 244T376 171T338 109T294 55Q263 24 228 24Q204 24 185 38T151 79T129 141T121 223Q121 240 123 262T129
308T137 354T148 396Q163 444 185 484Q208 527 232 550T287 584Q302 589 306 592T311 601Q311 614 300 614Q292 614 264 601Q248 594 231 583T197 557Q161 526 131 486T79 399T45 303T33 205Q33 157 44 118T76 50T126 7T190 -9Q251 -9 315 31T434 147Q467 192 488
233T525 326Q538 370 545 412T552 493Z" />
<glyph unicode="P" glyph-name="P" horiz-adv-x="695" d="M391 290L398 321L437 517Q443 547 443 550Q445 559 447 567T452 583Q454 588 455 591T459 598Q464 608 464 612Q464 619 456 619Q455 619 454 619T445 616L383 599Q372 596 367 592T358 576Q356 571 354
566T351 554T348 536T343 509Q341 495 337 473T326 422Q320 394 316 372T307 328T298 286T288 239L272 158Q267 136 265 123T257 95Q253 82 244 82Q235 82 221 87T192 101Q175 110 166 121Q164 123 161 128T150 144Q142 153 140 153Q131 153 128 138Q127 136 127
130Q127 122 133 114T156 94Q167 86 185 78T216 64L234 58Q243 55 243 49Q243 41 235 20T217 -19Q203 -45 178 -62T126 -80Q106 -80 85 -71T47 -44Q37 -34 34 -23L31 -13Q29 -8 28 -8Q26 -8 23 -11Q17 -16 14 -20Q7 -29 7 -38Q7 -50 34 -70Q58 -88 82 -95T135 -103Q161
-103 187 -96T236 -75T277 -43T306 -3L320 25Q327 38 332 42T345 48L375 50Q388 51 405 55T441 65T478 79T513 96Q550 116 578 144Q612 176 639 218T677 304Q683 325 685 348T688 398Q688 459 670 507T616 590T532 643T421 662Q371 662 327 653T246 623Q227 613
207 599T168 567T133 531T105 494Q87 465 76 431T65 371Q65 339 82 318T125 296Q155 296 188 318T249 378Q276 414 292 463T309 554Q309 581 301 581Q298 581 297 577T294 561Q292 542 289 526T280 492Q270 464 258 444T224 397Q160 321 121 321Q108 321 101 330T94
357Q94 392 120 439T193 534Q244 585 299 611T409 638Q453 638 488 622T549 577T589 507T603 416Q603 366 591 319T555 230T500 156T426 100Q385 77 354 77Q344 77 344 85Q344 90 347 101Q349 106 351 116T358 141L376 213L391 290Z" />
<glyph unicode="Q" glyph-name="Q" horiz-adv-x="531" d="M298 31Q302 31 309 29T331 18L353 6Q359 3 374 -3Q380 -5 386 -7T397 -11Q401 -12 404 -12T410 -13Q429 -13 464 19Q481 35 490 47T500 67Q500 73 490 76Q488 78 485 78Q483 78 481 78Q477 78 476 77T470
68Q468 63 464 59Q459 53 454 51H453Q444 51 423 63L392 80Q378 88 374 91T370 98Q370 101 372 104T389 124Q398 134 408 148T429 178T449 209T464 237Q483 275 498 326Q512 371 518 413T525 494Q525 534 518 567T497 625T465 663T424 677Q394 677 358 655T292
595Q260 554 242 498T224 380Q224 351 227 319T237 265Q242 247 251 229Q256 214 265 214Q271 214 271 221Q271 227 267 234Q259 254 254 282T248 334Q248 354 252 386T263 445T279 500T303 555Q320 589 339 607T375 626Q398 626 412 590T427 495Q427 460 421 417T404
329T379 243T349 171Q336 146 329 137T317 127Q312 127 294 138Q277 149 267 153T245 157Q234 157 218 147Q205 138 194 130T176 116Q155 98 155 89Q155 78 165 78Q169 78 173 80Q178 82 184 83T196 84Q204 84 214 80T235 71Q245 64 247 64Q255 60 257 58T260 52Q260
41 244 33T206 25Q154 25 124 78T94 223Q94 240 96 262T102 308T111 354T122 396Q130 419 138 441T158 484Q182 527 205 550T260 584Q275 589 279 592T284 601Q284 614 274 614Q265 614 237 601Q222 594 205 583T170 557Q134 527 104 486T53 399T19 303T7 205Q7
156 18 117T50 49T100 6T166 -9Q199 -9 230 0T286 26Q293 31 298 31Z" />
<glyph unicode="R" glyph-name="R" horiz-adv-x="691" d="M664 98Q656 98 654 89L651 79Q649 67 637 67Q632 67 626 70T608 84Q580 109 568 123L516 187Q495 213 467 238T421 275Q411 281 411 286Q411 291 427 294Q482 304 529 328T610 385T664 459T684 543Q684
606 641 643T527 681Q501 681 466 675T403 658Q358 642 311 611T217 535Q169 488 130 437T64 334T22 230T7 134Q7 68 35 27T111 -14Q144 -14 180 4T251 54Q279 81 299 112T338 189Q344 206 353 206Q358 206 368 200T388 186Q396 179 403 172T420 155T442 129T473
91Q502 55 521 36T561 2Q587 -17 605 -17Q616 -17 624 -10T646 20Q661 43 669 59T678 81Q678 83 677 85T671 93Q667 98 664 98ZM448 619Q445 619 441 617L359 579Q349 574 345 571T338 561Q332 548 326 525T313 466Q306 433 303 415T297 391L286 347Q281 328 280
324T276 317Q276 317 269 315Q256 312 250 307Q245 302 239 295T217 263Q215 260 212 255T203 243Q199 237 199 234Q199 228 206 228Q208 228 214 230Q215 230 218 230T228 232Q233 233 236 233T243 234H244Q250 234 254 231T259 222Q259 220 258 217T256 209Q253
203 247 185Q217 94 186 53T114 11Q88 11 74 32T59 91Q59 113 64 140T78 200Q94 254 114 299T167 398Q244 523 324 586T484 649Q533 649 564 618T596 538Q596 479 560 422Q544 396 526 379T480 347Q455 333 431 325T392 316Q377 316 377 326V327Q378 332 378 336T381
347Q384 357 393 393L408 454Q415 481 419 499T425 525Q431 549 440 573Q445 588 450 598Q454 606 454 612Q454 619 448 619Z" />
<glyph unicode="S" glyph-name="S" horiz-adv-x="633" d="M426 544Q426 528 430 507T446 448L503 263Q503 263 508 250Q516 225 522 196T528 150Q528 24 315 24Q257 24 205 35T112 66T49 110T25 164Q25 188 41 208T86 243T154 266T241 275Q286 275 329 264T400
234Q407 230 410 228T415 225Q419 222 424 222Q431 222 431 229Q431 237 414 250T365 280Q328 300 289 310T214 321Q171 321 134 309T68 275T24 224T7 161Q7 123 30 90T91 30T181 -11T290 -26Q353 -26 411 -7T515 44T586 118T613 206Q613 228 607 257T586 334Q581
348 572 378T547 456Q527 518 519 553T510 605Q510 633 528 633Q539 633 556 615T584 570Q592 553 597 528T603 483Q603 469 600 454Q597 442 597 438Q597 431 602 431Q606 431 611 443Q619 467 622 487T626 529Q626 556 619 581T601 625T576 657T545 669Q530 669
513 659T471 626Q451 607 443 596T430 571Q426 559 426 544Z" />
<glyph unicode="T" glyph-name="T" horiz-adv-x="547" d="M485 668Q473 668 454 664T421 651L394 637Q387 633 379 633Q371 633 361 636Q344 641 335 643T323 647Q318 649 308 651T282 657Q262 661 249 664T227 668T210 670T194 671Q146 671 101 648T27 587Q7
560 7 532Q7 519 11 509T22 498Q27 498 32 501Q50 511 50 521Q50 523 47 528L42 538Q40 539 39 547Q37 557 37 557Q37 578 59 590T119 602Q128 602 143 602T171 599Q192 597 206 594T228 589L265 577Q279 572 283 570T287 564Q287 556 262 538Q246 527 219 497T166
434Q137 396 118 359Q97 317 85 269T72 178Q72 136 85 100T122 37T177 -5T246 -21Q300 -21 349 5T437 76T497 177T520 297Q520 333 512 363T488 414T453 448T408 461Q374 461 338 432T279 357Q263 327 255 292T246 223Q246 184 256 141T283 70Q289 61 295 61Q301
61 301 69Q301 73 298 81Q293 90 289 102T282 128T277 155T275 178Q275 196 279 222T291 280Q300 314 308 334Q326 379 352 407T403 435Q426 435 443 407T460 341Q460 323 454 291T437 230Q429 204 414 170T382 105Q356 56 324 30T260 4Q216 4 192 47T168 169Q168
216 175 256T198 344Q212 384 227 415T263 478Q277 498 292 517T318 547Q330 557 340 557Q344 557 347 557T356 555L380 550Q388 548 396 547T411 546Q437 546 465 557T512 587Q525 599 533 612T541 634Q541 649 525 658T485 668ZM433 625Q433 633 455 639L479
645L490 644Q511 644 511 631Q511 627 504 623Q491 613 474 613Q433 613 433 625Z" />
<glyph unicode="U" glyph-name="U" horiz-adv-x="540" d="M451 298L454 312L529 630L531 641Q533 648 533 649Q533 651 534 655Q534 663 527 663Q526 663 518 661L460 642Q447 638 443 633Q441 631 440 628T438 615Q437 610 435 599T427 570L400 471Q370 360 331
269Q321 246 312 228T293 191T271 156T245 119Q203 63 180 63Q174 63 170 68T165 81Q165 89 167 101T179 144Q186 166 203 228L234 342Q258 431 269 483T280 563Q280 607 259 634T203 661Q154 661 105 614Q58 570 33 509T7 379Q7 344 12 311T32 240Q36 228 42 228Q47
228 47 234Q47 236 47 239T44 246Q42 253 40 262T36 283Q34 297 32 309T30 331Q30 350 35 375T49 433Q62 478 74 509T104 566Q121 592 140 609T170 627Q181 627 187 617T193 588Q193 582 193 573T190 556Q188 542 185 525T176 488Q167 451 161 427T151 388L118
276Q114 264 107 236T89 163Q84 143 80 125T73 92Q70 79 69 67T68 44Q68 15 80 -1T113 -17Q202 -17 317 192Q328 212 331 217T337 222Q341 222 341 216Q341 213 337 202Q336 201 333 185L322 141Q320 133 318 121T314 91Q312 77 311 66T310 46Q310 -15 355 -15Q381
-15 414 7T477 68Q520 122 520 148Q520 155 519 159L514 176Q512 181 511 184Q511 187 507 187Q501 187 499 171Q495 147 487 125T469 87T446 62T422 52Q405 52 405 77Q405 89 412 126T430 210Q434 227 437 238T442 258L451 298Z" />
<glyph unicode="V" glyph-name="V" horiz-adv-x="767" d="M356 169Q340 135 319 104T276 52L254 32Q245 24 245 15Q245 -4 272 -8Q284 -10 300 -12T328 -14Q349 -14 374 -9T425 4T477 25T527 53Q555 70 583 92T625 131Q634 142 638 145T648 148Q652 148 658 145T675
134Q692 122 707 116T732 110Q742 110 747 119L754 128Q759 134 759 136T760 140Q760 142 757 144Q753 146 752 146Q751 146 746 146Q742 146 732 144H728Q713 144 685 158Q665 168 665 176Q665 179 667 183T678 201Q713 256 733 319T753 443Q753 472 748 502T732
560T708 612T678 655Q666 668 652 675T626 683Q614 683 599 674T573 651Q545 615 529 562T512 455Q512 424 518 390T534 324T557 263T587 215Q596 204 599 199T602 190Q602 181 581 156T527 100Q492 68 463 51T397 23Q370 16 344 16Q325 16 314 20T302 33Q302 41
317 57Q398 144 439 231T481 405Q481 463 463 512T414 599T341 657T250 678Q200 678 156 659T79 608T27 532T7 439Q7 397 21 360T59 296T116 253T187 237Q236 237 273 263Q281 268 281 276Q281 281 280 286T275 300Q270 312 265 312Q260 312 254 299Q245 282 226
273T183 263Q156 263 133 277T91 317T63 377T53 451Q53 534 88 581T188 628Q232 628 270 607T336 548T380 460T396 350Q396 252 356 169ZM673 452Q673 435 672 415T669 377T665 343T660 318L643 263Q632 226 619 226Q613 226 608 233T596 260L576 314Q571 326 568
346T561 391T557 442T555 492Q555 523 559 550T569 597T585 630T604 642Q617 642 629 627T652 585T667 524T673 452Z" />
<glyph unicode="W" glyph-name="W" horiz-adv-x="862" d="M494 322L454 258L407 187Q387 155 379 155Q375 155 375 162V163L379 175L390 202L414 265Q431 310 441 361T451 458Q451 506 437 545T395 613T330 656T246 672Q197 672 154 653T77 600T25 523T6 429Q6
388 20 351T59 285T115 239T182 221Q196 221 216 226T253 240Q257 241 261 245T265 258V259Q265 260 265 263T263 273Q257 291 253 291Q251 291 247 287Q227 264 211 256T171 248Q143 248 120 260T81 296T55 352T46 423Q46 468 58 507T90 575T137 621T197 638Q234
638 266 616T323 557T362 469T376 361Q376 316 367 265T339 166Q333 148 324 129T306 91T289 58T273 33Q263 20 263 16Q263 9 273 2Q277 -2 282 -2Q291 -2 301 11L324 38L361 81L406 140L427 168Q438 183 445 183Q451 183 451 172Q456 96 490 50Q507 26 532 9T574
-8Q593 -8 633 18Q648 28 660 37T683 55Q691 62 702 74T729 104Q748 126 755 136Q765 150 772 150Q773 150 781 148Q786 146 791 146T802 144Q809 142 812 142Q816 142 817 142Q821 140 824 140Q828 140 830 140Q838 140 844 149L852 160Q856 168 856 169Q856 170
854 172T850 174Q845 174 841 173Q836 171 825 170Q817 170 812 170T803 169Q785 169 785 180Q785 184 788 190Q801 212 811 241T829 301T841 363T846 423Q846 475 833 523T799 608T751 667T693 689Q679 689 663 680T634 654Q607 619 592 568T576 462Q576 405 593
356T649 257Q666 234 685 214T721 183Q734 174 734 166Q734 157 722 138Q709 117 687 96Q653 63 625 63Q584 63 560 113T535 244Q535 273 539 300T554 361Q556 367 556 367Q556 369 553 374Q546 384 538 384Q533 384 529 379T516 359Q514 355 509 346T494 322ZM776
344Q776 327 775 312T772 282L763 234Q760 219 755 210T744 200Q737 200 727 211T705 241T682 284T662 335Q654 357 648 385T637 442T630 499T627 550Q627 591 638 620T666 650Q681 650 701 624T739 555Q755 517 762 481T774 396Q775 382 775 369T776 344Z" />
<glyph unicode="X" glyph-name="X" horiz-adv-x="573" d="M303 450L269 523L261 538L233 592Q213 629 179 650T102 672Q88 672 78 671T60 667T46 659T32 645Q26 637 21 629T13 613Q7 593 7 568Q7 509 42 455T141 366Q159 355 173 349T193 343Q202 343 202 349Q202
355 191 360Q179 365 166 373T142 389Q124 406 103 432T64 488Q33 539 33 586Q33 612 42 627T67 642Q88 642 110 617T155 545L238 366L243 354L248 344Q250 340 251 337T252 330Q252 325 250 321Q249 319 243 310Q243 310 238 303L76 34L71 26Q69 22 69 17V16Q69
12 70 9L77 3Q83 -2 87 -2Q93 -2 101 9L265 237L272 245Q276 252 283 252Q291 252 298 237L374 77Q413 -5 446 -5Q457 -5 468 1T495 23Q516 43 529 63T552 106Q557 120 561 135T566 157Q566 162 563 167T550 183Q547 186 544 186Q540 186 540 181V176Q542 168 542
163Q542 127 530 101T501 75Q493 75 488 79T473 99Q469 104 467 108T463 115L360 328Q356 336 356 338Q353 342 353 349Q353 354 354 357T363 370L528 594Q536 605 538 608T540 617Q540 620 538 623T528 632L484 667Q477 673 472 673Q466 673 459 662L329 450Q321
437 316 437Q309 437 303 450Z" />
<glyph unicode="Y" glyph-name="Y" horiz-adv-x="543" d="M450 201L453 220L540 619L542 628Q543 630 543 634Q543 643 536 643Q533 643 528 642L473 627Q461 624 458 618T449 586Q448 582 445 568T434 527L406 429Q385 354 353 283T283 156Q254 114 229 90T189
65Q181 65 176 72T170 88Q170 91 170 95Q170 100 172 105L181 145L200 215L232 327L265 445Q277 487 282 514T287 566Q287 614 265 641T205 669Q167 669 130 644T63 572Q37 530 22 483T7 392Q7 360 16 321T40 247Q45 236 51 236Q53 236 54 238Q55 239 55 241Q55
243 53 249T49 262T45 281Q39 318 39 345Q39 358 41 375T46 412T54 452T65 491Q76 526 94 558T138 616Q162 643 185 643Q208 643 208 612Q208 601 205 583T193 535L173 460L148 366L121 272L103 203Q93 165 89 144T82 117Q77 94 77 68Q77 34 91 15T129 -4Q147 -4
169 7T216 40T263 89T307 153L341 211Q357 238 357 239Q362 250 364 253T370 257Q374 257 374 252Q374 247 371 241Q369 236 368 220Q367 215 366 209T363 193Q361 181 359 173T355 159Q352 148 351 141T348 132Q346 121 345 119T342 115T335 107Q325 98 313 85T290
58T268 29T250 4Q233 -25 223 -53T213 -104Q213 -128 222 -142T247 -156Q257 -156 271 -150T299 -133T328 -108T354 -79Q371 -54 385 -22T414 61Q419 78 423 93T430 120Q435 141 438 146T451 154Q461 157 473 157Q476 157 479 157Q483 157 487 156T494 155T500
154Q507 154 511 162T516 181Q516 189 507 189Q500 189 490 188T474 186Q460 183 457 183Q447 183 447 191V192L450 201ZM245 -105L243 -95L242 -88V-84Q242 -73 252 -47T275 4Q280 12 285 20T299 39Q312 56 317 61T326 67Q332 67 332 60Q332 54 329 40T321 8T308
-30T294 -71Q286 -93 276 -105T257 -118Q248 -118 245 -105Z" />
<glyph unicode="Z" glyph-name="Z" horiz-adv-x="733" d="M495 584L559 578L587 575Q605 574 605 565Q605 561 603 558T592 545Q581 533 571 516T543 469Q533 452 527 440T515 417T503 392T488 360L463 304Q458 292 454 284T447 270Q441 253 435 249T415 244Q406
244 397 245T383 249L373 254Q369 256 366 256Q361 256 357 248Q354 240 349 232Q344 223 343 220T341 212Q341 206 347 206Q352 206 357 208Q365 210 377 212T397 216Q398 217 401 217Q416 217 416 209Q416 206 413 202L407 191Q405 186 395 173Q393 170 390 164T380
148Q366 125 357 118T334 111H317Q312 112 304 112Q296 112 285 113Q274 113 267 113T254 114Q217 114 184 107T126 88T87 61T72 27Q72 10 95 2T160 -7Q192 -7 223 1T290 29Q304 36 310 38T324 41Q327 41 337 39L366 32Q380 29 424 20Q447 15 463 12T490 6Q515
2 544 0T595 -2Q612 -2 623 -1T643 4Q649 7 655 12T671 31L687 52Q692 59 696 65T705 79Q716 100 719 103Q723 110 723 115Q723 120 719 120Q718 120 712 116Q697 102 662 93T589 84Q577 84 557 85T506 89Q477 91 458 92T430 96Q418 98 412 99T403 101Q385 102
385 111Q385 112 389 118Q390 119 393 121T401 129Q403 131 408 137T422 153L444 178Q448 183 452 188T461 201Q469 212 476 216T498 220Q503 220 507 220T517 218L535 215Q547 213 547 213Q555 211 554 211Q557 211 560 215T571 233Q577 244 578 248T580 255Q580
261 574 261Q572 261 566 259Q538 246 508 246Q497 246 497 254Q497 257 502 264Q504 267 506 271T512 284Q514 289 520 300T537 330Q557 368 574 405T605 480L625 532Q639 567 643 570Q646 573 653 576Q684 586 705 612T727 665Q727 678 716 678Q710 678 699 670T677
651Q669 643 666 641T656 639Q645 639 632 643Q624 645 611 647T578 653L508 665Q473 671 438 673T372 676Q313 676 266 665T179 631Q162 621 144 607T108 578T76 545T50 513Q30 484 19 444T7 367Q7 331 18 301T50 250T99 216T163 204Q200 204 238 220T310 263T373
329T419 412Q427 432 431 456T436 504Q436 516 429 516Q424 516 424 507Q421 455 398 408T339 325T256 268T160 247Q132 247 108 257T65 284T37 325T26 376Q26 426 53 474T127 554Q193 598 298 598Q330 598 376 595T495 584ZM268 46Q268 42 266 40T254 35L227 25Q199
14 157 14Q111 14 111 30Q111 43 134 49Q156 55 171 57T200 60Q208 60 215 60T231 58Q247 55 253 55Q268 53 268 46Z" />
<glyph unicode="[" glyph-name="bracketleft" horiz-adv-x="182" d="M16 -59L20 -58L129 -38Q132 -38 136 -32Q138 -30 138 -25Q138 -20 130 -20H69Q63 -20 63 -14V-13L113 659Q114 667 122 668L170 677Q175 679 175 685Q175 695 162 695H70Q62 695 61 676L7 -44V-48Q7
-60 15 -60L16 -59Z" />
<glyph unicode="\" glyph-name="backslash" horiz-adv-x="325" d="M9 724L11 717L252 -26Q265 -68 287 -68Q300 -68 309 -59T319 -36Q319 -31 318 -27T315 -18L312 -10L68 717Q61 737 54 744T33 752Q22 752 15 748T7 735Q7 733 7 730Q7 728 9 724Z" />
<glyph unicode="]" glyph-name="bracketright" horiz-adv-x="197" d="M16 -38L125 -59L129 -61H130Q138 -61 138 -51V-45L191 675V676Q191 677 191 678T190 681Q189 683 189 685Q189 687 188 689Q186 691 185 693Q181 695 181 695H89Q76 695 76 685Q76 679 81
677L129 668Q138 666 138 659L82 -14Q82 -19 81 -20Q79 -21 76 -21H15Q7 -21 7 -26Q7 -33 12 -36Q14 -38 16 -38Z" />
<glyph unicode="^" glyph-name="asciicircum" horiz-adv-x="393" d="M157 667L7 450H100L197 593L293 450H387L237 667H157Z" />
<glyph unicode="_" glyph-name="underscore" horiz-adv-x="515" d="M508 -40H7V-93H508V-40Z" />
<glyph unicode="`" glyph-name="grave" horiz-adv-x="134" d="M26 337Q43 317 57 304T82 284L101 274Q109 269 113 269Q118 269 124 273Q127 276 127 280Q127 283 124 288L116 298Q108 307 96 332T75 378Q72 386 70 387T62 390Q57 391 54 391T45 392Q22 392 15
389T7 376Q7 368 11 359T26 337Z" />
<glyph unicode="a" glyph-name="a" horiz-adv-x="319" d="M270 227H262H224Q215 225 213 223L204 217Q199 214 195 214Q190 214 186 217L174 223Q157 232 141 232Q127 232 112 226T81 210T53 186T29 155Q7 117 7 78Q7 44 21 22T59 0Q75 0 98 15T141 52Q146 57
149 57Q154 57 154 51V41Q154 21 164 11T192 0Q213 0 243 17T299 64Q312 80 312 99Q312 106 307 106Q302 106 299 102T290 86Q286 78 279 69T264 54Q256 49 251 49Q242 49 242 63Q242 68 245 80T251 104L280 205L281 211Q282 215 282 217Q282 222 280 224T270 227ZM85
96V99Q85 122 94 146T118 187Q124 194 133 199T148 204Q160 204 160 185V182Q160 171 168 168Q172 167 174 166T177 165Q180 163 180 159V158Q180 152 173 137T155 105Q128 66 106 66Q97 66 91 74T85 96Z" />
<glyph unicode="b" glyph-name="b" horiz-adv-x="242" d="M177 624H173L131 619Q120 617 115 613T108 597L21 166Q20 164 20 162Q20 160 19 156Q12 128 10 109T7 72Q7 38 26 19T79 -1Q112 -1 144 17T199 68Q204 74 206 76T214 78Q236 81 236 94Q236 98 232 100L225
104Q222 107 221 110Q220 112 220 116Q220 120 221 123Q224 136 224 154Q224 190 208 216T170 242Q151 242 139 228T126 192Q126 154 158 115Q169 101 169 94Q169 85 160 70T139 42Q123 28 110 28Q83 28 83 63Q83 73 85 85T91 115Q93 123 94 128T96 135L190 603V610Q190
624 177 624Z" />
<glyph unicode="c" glyph-name="c" horiz-adv-x="228" d="M182 28Q204 46 207 56L211 70Q213 76 213 77Q213 82 208 82Q204 82 198 75Q175 44 159 34T119 24Q81 24 81 69Q81 75 83 85T88 106T94 128T102 148Q115 175 128 190T153 206Q161 206 166 199T172 180Q172
172 170 162T160 138Q157 129 157 128Q157 120 165 120H171L200 125Q221 128 221 156Q221 172 215 186T199 211T174 228T144 234Q118 234 93 221T49 187T19 138T7 80Q7 42 31 18T95 -6Q139 -6 182 28Z" />
<glyph unicode="d" glyph-name="d" horiz-adv-x="295" d="M254 170Q254 174 257 182L262 199Q274 241 283 285T292 369Q292 422 282 469T253 552Q236 584 219 601T187 619Q159 619 131 548Q104 482 104 429Q104 408 107 383T116 334T130 286T147 246Q150 238 150
237Q150 234 147 233T135 230Q109 227 86 213T46 179T18 135T7 85Q7 44 28 19T81 -7Q108 -7 139 11T191 58Q200 70 218 100Q224 111 227 117T233 126Q237 138 246 138Q250 138 258 135Q266 131 270 131Q277 131 283 142Q285 146 285 149Q285 155 269 158Q260 160
257 162T254 170ZM143 436Q143 493 150 530T170 567Q175 567 181 554T195 510Q206 474 210 439T214 358Q214 346 214 336T212 313T210 286T206 249Q203 227 194 227Q186 227 178 245T156 313Q149 339 146 366T143 436ZM116 32Q83 32 83 92Q83 155 129 201Q139 211
145 214T158 218Q163 218 165 216Q165 216 171 208Q173 204 179 198Q190 185 190 177Q190 170 186 153Q177 118 165 90Q151 58 141 45T116 32Z" />
<glyph unicode="e" glyph-name="e" horiz-adv-x="233" d="M227 170Q227 199 205 219T150 239Q121 239 95 227T50 194T18 146T6 89Q6 46 32 21T101 -4Q133 -4 162 10T210 50Q224 69 224 85Q224 92 217 92Q212 92 207 83Q203 79 202 75Q192 60 189 57Q178 43 160
34T127 25Q111 25 101 39T91 74Q91 92 102 92Q104 92 106 92T114 90Q123 86 136 86Q154 86 170 93T199 111T219 138T227 170ZM113 119Q101 119 101 132Q101 144 113 171Q121 189 129 198Q141 213 155 213Q169 213 169 190Q169 174 158 155T131 125Q127 123 123
121T113 119Z" />
<glyph unicode="f" glyph-name="f" horiz-adv-x="303" d="M155 500L153 488L100 215L99 209L97 197Q95 189 93 187T87 184Q84 184 80 188Q72 193 65 193Q58 193 50 189T33 177Q24 168 21 160Q13 143 7 97V82Q7 48 41 41Q55 38 57 37Q61 37 64 32Q66 28 66 25V24L64
14V8L43 -107L42 -114L40 -123V-125Q40 -130 46 -136Q48 -137 52 -137H57L102 -132Q119 -131 123 -107L142 16L143 22Q144 26 146 30T150 36Q153 38 157 39T179 42Q212 46 239 53T273 68Q277 71 279 78Q280 79 286 101Q287 106 287 112Q287 118 281 118Q277 118
274 115L258 103Q245 93 232 87T193 73Q184 70 175 70Q166 70 166 78Q166 83 170 88Q184 110 195 130T216 171T234 213T251 261Q274 330 285 388T296 499Q296 523 293 546T283 587T269 615T253 626Q248 626 237 620T211 602Q197 590 184 575Q173 560 167 545T155
500ZM172 164L173 173L235 525L237 536Q242 559 247 559Q253 559 257 534T261 474Q261 463 260 447T257 413T252 377T246 344Q244 332 240 316T232 282T222 249T213 220Q207 203 199 186T182 157Q179 152 176 152Q172 152 172 159V164ZM82 113V108L80 91Q77 71
68 71Q55 71 55 102Q55 119 60 133T71 147Q82 147 82 113Z" />
<glyph unicode="g" glyph-name="g" horiz-adv-x="288" d="M253 101L273 202L274 209Q275 212 275 217Q275 222 271 225T262 229Q257 229 253 228L221 227Q216 227 212 227T205 224L199 218Q192 211 188 211Q187 211 179 215Q158 226 140 226Q111 226 82 207T33
156Q7 116 7 74Q7 42 22 20T61 -2Q81 -2 105 13T149 52Q156 61 158 63T164 65Q168 65 168 59V56L166 47Q164 42 164 39Q164 36 163 34Q162 31 156 27Q153 25 150 22T143 17Q127 5 117 -3T100 -18T87 -32T74 -50Q54 -79 54 -104Q54 -121 64 -132T92 -143Q141 -143
179 -103T236 9Q240 23 242 32Q243 37 247 41Q249 44 256 46L268 47Q282 50 282 61Q282 72 268 72Q251 72 251 83Q251 86 252 88Q252 90 252 91T253 94V101ZM105 54Q82 54 82 88Q82 111 90 134T114 179Q123 192 129 197T143 202Q158 202 158 186Q158 184 158 183T157
179V175Q157 167 166 167H172Q173 168 175 168Q183 168 183 159Q183 152 177 137T159 103Q146 82 131 68T105 54ZM80 -99V-98Q80 -84 94 -62T128 -21Q138 -12 144 -12Q151 -12 151 -17Q151 -24 139 -55Q130 -80 117 -97T92 -115Q80 -115 80 -99Z" />
<glyph unicode="h" glyph-name="h" horiz-adv-x="333" d="M121 600L10 29L8 19Q7 15 7 11Q7 5 10 3T25 0H59H65L73 1Q77 1 79 5T86 23Q97 55 108 80T130 120Q135 126 140 133T154 148Q165 159 171 163T183 167Q193 167 193 155Q193 152 193 148T191 139Q189 135
187 127T181 108Q168 62 168 35Q168 17 178 7T207 -4Q231 -4 259 16T312 69Q321 82 323 88T326 103Q326 122 319 122Q313 122 309 109Q300 85 286 67T262 49Q253 49 253 61Q253 66 256 81T264 112L277 162Q279 169 280 176T281 190Q281 210 269 222T238 235Q206
235 164 195Q158 189 151 181T131 157Q125 150 122 150Q116 150 116 159Q116 161 118 171Q120 179 120 179L203 603Q204 607 204 614Q204 626 192 626Q186 626 183 625L143 620Q131 618 127 615T121 600Z" />
<glyph unicode="i" glyph-name="i" horiz-adv-x="165" d="M146 364Q146 384 133 397T100 411Q81 411 69 398T56 364Q56 345 68 333T101 320Q120 320 133 332T146 364ZM40 201L13 84L11 74Q9 66 8 51Q7 46 7 41Q7 36 7 32Q7 -4 42 -4Q63 -4 90 13T138 57Q144 65
149 76T158 97V102Q158 111 152 111Q148 111 146 108T139 92Q133 75 124 64T103 53Q91 53 91 70V73L93 84L95 91L125 213Q126 215 126 219Q126 230 113 230H110L57 222Q45 220 40 201Z" />
<glyph unicode="j" glyph-name="j" horiz-adv-x="190" d="M183 354Q183 374 169 387T134 401Q114 401 101 388T88 354Q88 335 103 320T136 304Q154 304 168 319T183 354ZM102 196L96 168L94 158Q92 150 91 149Q90 147 88 146T84 142Q68 128 54 105T30 55T13 0T7
-56Q7 -94 17 -118T45 -143Q59 -143 73 -132T101 -103T125 -60T142 -7L147 17L150 30L181 204Q182 208 182 210Q182 213 182 215Q182 225 170 225H165L123 217Q112 215 108 211T102 196ZM83 95Q83 93 83 91Q83 89 82 84L57 -59Q53 -85 45 -85Q39 -85 35 -72T31
-38Q31 -27 33 -13T38 17T45 45T54 67L65 89Q70 98 72 101T77 104Q83 104 83 95Z" />
<glyph unicode="k" glyph-name="k" horiz-adv-x="298" d="M131 606L9 25L8 20Q7 17 7 14Q7 12 7 10Q7 0 25 0H68Q85 0 88 11L90 20L97 48Q101 65 108 65Q112 65 115 63T130 47L148 27L159 15Q168 3 177 1Q179 1 182 1Q185 1 190 0H197H248Q268 0 268 7Q268 10
264 13L258 21L239 39L224 56Q216 65 213 70T210 80Q210 84 213 86T229 94Q256 105 273 128T291 175Q291 203 276 218T232 234Q194 234 154 200Q149 196 146 194T142 190Q137 187 134 187Q128 187 128 195Q128 201 129 206L215 607Q215 610 215 612T216 617Q216
628 205 628Q203 628 203 628T201 627L149 622Q133 620 131 606ZM127 138Q138 154 154 163T184 173Q195 173 203 167T211 151Q211 128 188 112T133 96Q113 96 113 109Q113 118 127 138Z" />
<glyph unicode="l" glyph-name="l" horiz-adv-x="198" d="M106 582L17 112L15 102Q13 91 12 84T10 72T9 63T8 54Q7 49 7 43Q7 38 7 33Q7 -10 40 -10Q51 -10 66 -5Q90 2 107 12T149 45Q172 65 182 81T192 113Q192 123 189 129T180 136Q173 136 168 116Q165 103
158 91T143 69T126 53T108 47Q95 47 95 67Q95 78 98 95Q98 97 99 102T102 119L104 131L187 595Q188 597 188 601Q188 611 176 611Q173 611 170 610L122 601Q114 599 111 596T106 582Z" />
<glyph unicode="m" glyph-name="m" horiz-adv-x="507" d="M113 141L115 147L131 212V216Q131 227 116 227H114L66 220Q56 218 52 215T46 202L7 22V15Q7 6 10 3T21 0H61Q70 0 73 3T81 16L85 27Q90 39 104 64Q112 78 119 89T132 109Q137 116 143 123T158 138Q176
156 187 156Q197 156 197 145Q197 138 196 134Q194 130 194 129L170 19Q168 13 168 11Q168 0 185 0H232Q242 0 245 3T254 21Q262 43 269 59T285 90T305 117T331 147Q349 166 360 166Q369 166 369 153Q369 148 368 140T359 108Q351 79 348 61T344 35Q344 18 354
8T381 -3Q396 -3 418 8T460 36Q477 50 489 65T501 88Q501 109 490 109Q485 109 482 100Q475 80 463 64T441 48Q432 48 432 61Q432 66 435 75Q436 77 437 85T443 108Q448 126 450 136T454 152Q458 165 458 184Q458 206 446 218T413 230Q391 230 362 210T307 156Q297
143 295 141T290 138Q285 138 285 147V151Q287 160 287 160L290 172Q291 176 291 186Q291 229 254 229Q231 229 201 208T138 149Q127 136 124 134T118 131Q113 131 113 138V141Z" />
<glyph unicode="n" glyph-name="n" horiz-adv-x="329" d="M108 150Q108 152 108 154T109 158L118 202Q119 206 119 208T120 212V216Q120 230 107 230H106L51 220Q44 218 41 214T36 197L9 28Q8 25 8 23Q8 21 7 19V10Q7 0 21 0H59Q67 0 70 3T78 17Q85 36 90 50T101
75T112 95T125 115Q142 140 158 155T186 170Q194 170 194 159Q194 153 193 143T186 112T178 81T174 65Q173 60 173 55T172 43V40Q172 21 181 10T208 -1Q225 -1 247 11T287 42Q291 47 296 53T308 67Q317 79 320 85T323 99Q323 114 315 114Q310 114 306 104Q284 50
263 50Q255 50 255 62Q255 68 257 79T262 102L271 134Q275 148 278 166T281 193Q281 213 270 225T239 237Q231 237 220 233T196 222Q182 214 172 205T141 173Q131 162 128 157Q120 148 118 146T113 144Q108 144 108 150Z" />
<glyph unicode="o" glyph-name="o" horiz-adv-x="231" d="M145 242Q137 235 136 234L130 226Q125 219 112 216Q64 205 36 172T7 94Q7 53 31 26T92 -1Q118 -1 144 17T190 67Q195 74 197 75T206 79Q224 85 224 92Q224 95 222 98Q218 104 218 104L213 110Q211 112
211 115Q211 117 211 120T213 129Q217 141 217 155Q217 194 202 222T166 250Q156 250 145 242ZM151 190Q151 209 163 209Q172 209 177 195T182 157Q182 140 172 140Q164 140 158 158Q151 180 151 190ZM149 53Q135 36 119 35H117Q103 35 95 47T87 83Q87 103 92 123T105
160Q114 174 120 174Q124 174 126 171T131 157Q134 150 144 134Q147 129 150 125T156 116Q164 108 165 105T167 95Q167 86 162 75T149 53Z" />
<glyph unicode="p" glyph-name="p" horiz-adv-x="294" d="M61 201L9 -101L8 -109Q7 -113 7 -115Q7 -118 7 -120Q7 -132 17 -132H25L65 -127Q82 -126 85 -109L102 -6Q105 11 112 11Q115 11 122 6Q135 -2 156 -2Q176 -2 197 8T235 37Q259 63 273 96T287 159Q287
189 271 211T231 234Q220 234 206 229T179 216Q171 211 166 206T148 187Q143 181 141 181Q139 181 139 189Q139 193 139 197Q139 201 141 210V216Q141 228 128 228H126L77 219Q64 216 61 201ZM132 50H131L124 49H123Q114 49 114 58Q114 64 116 74T127 106Q131 116
135 125T147 142Q155 153 166 160T187 167Q198 167 204 158T211 132Q211 107 200 71Q182 19 159 19Q150 19 147 24T139 43Q137 50 132 50Z" />
<glyph unicode="q" glyph-name="q" horiz-adv-x="260" d="M148 22L147 14L124 -102L122 -110Q121 -112 121 -115Q121 -125 133 -125Q136 -125 138 -124L179 -118Q200 -115 204 -96L248 120L249 128Q250 133 250 135Q250 144 239 144H237L189 140Q176 139 170 122Q159
93 143 76T108 58Q82 58 82 101Q82 132 98 160Q111 183 128 198T160 213Q181 213 181 187Q181 184 181 181T180 175Q179 172 179 167Q179 158 186 158Q190 158 193 159L199 160L240 171Q253 174 253 185Q253 206 232 222T182 238Q148 238 117 224T61 187T22 133T7
71Q7 39 21 20T61 0Q72 0 91 8T126 27L138 35Q141 38 145 38Q150 38 150 31Q150 29 150 28T148 22Z" />
<glyph unicode="r" glyph-name="r" horiz-adv-x="235" d="M20 0H25H60Q71 0 75 3T83 21Q96 71 112 104T139 138Q147 138 147 129Q147 128 147 126T146 122L145 116Q144 112 144 108Q144 101 152 101Q157 101 163 102T190 111Q201 115 206 117T214 124Q219 131
224 156Q228 172 228 189Q228 212 220 224T195 237Q181 237 164 223T135 188Q130 179 128 177T122 174Q116 174 116 182Q116 186 118 194T122 212Q124 220 124 222Q124 232 116 232Q115 232 114 232T111 231L60 223Q43 220 40 203L9 21Q8 18 8 15Q7 13 7 9Q7 0
20 0Z" />
<glyph unicode="s" glyph-name="s" horiz-adv-x="214" d="M165 144L137 163L115 180Q103 189 103 197Q103 214 125 214Q152 214 169 183Q176 170 183 170Q190 170 199 181Q207 190 207 197Q207 205 198 213Q183 224 159 232T114 241Q79 241 55 220T30 167Q30 150
38 138T71 109L106 84Q123 72 128 65T134 49Q134 26 106 26Q68 26 43 69Q37 79 35 81T29 83Q20 83 15 75Q7 67 7 56Q7 42 41 22T103 2Q123 2 141 9T173 27T195 54T204 85Q204 100 194 115T165 144Z" />
<glyph unicode="t" glyph-name="t" horiz-adv-x="205" d="M52 178L50 170L35 92L34 83L31 68Q28 54 28 41Q28 21 37 9T64 -3Q87 -3 119 15T177 62Q188 74 191 81T195 100Q195 113 188 113Q183 113 179 103Q171 81 154 63T123 45Q112 45 112 64Q112 67 113 68L114
78V84L133 176Q137 199 151 199Q157 199 165 196Q179 191 183 191Q191 191 195 204Q196 209 196 211T197 214Q198 216 198 220Q198 232 175 232H172L159 231Q148 231 148 243Q148 248 149 252L192 467Q193 470 193 476Q193 485 183 485H181L130 480Q113 479 109
456L68 251Q65 237 60 233T38 229H34H32Q17 229 12 222T7 195Q7 185 14 185Q16 185 24 189Q26 190 28 190T36 193Q42 195 45 195Q53 195 53 185Q53 183 53 182T52 178Z" />
<glyph unicode="u" glyph-name="u" horiz-adv-x="321" d="M266 234Q263 234 262 233L216 225Q209 225 204 220L201 214Q200 212 200 210T197 202Q194 193 185 173T165 134Q154 112 138 93Q117 68 103 68Q92 68 92 79Q92 85 93 93T99 119Q102 132 103 140T106 150T109
159T114 180L122 212Q125 218 125 223Q125 233 109 233H104L56 226Q51 225 49 223T44 215T38 198T31 167Q29 160 20 121Q12 91 10 73T7 42Q7 3 44 3Q58 3 67 6T91 20Q122 42 140 64Q151 77 154 80T161 83Q167 83 167 77Q167 76 165 68Q164 62 163 53T161 34V30Q161
18 168 11T189 3Q199 3 213 8T241 21T269 41T294 64Q302 74 308 86T315 106Q315 115 307 115Q303 115 300 108Q291 86 280 72T258 58Q249 58 249 74Q249 85 250 95T255 121L277 211Q279 221 279 223Q279 234 266 234Z" />
<glyph unicode="v" glyph-name="v" horiz-adv-x="230" d="M105 233H101L49 226Q41 225 39 221T33 201Q32 199 31 193T28 177Q23 151 18 124T9 80Q8 73 8 67T7 53Q7 30 17 17T48 3Q78 3 111 22Q125 30 134 39T163 68Q177 83 184 83Q188 83 193 80L202 73Q204 71
208 71Q214 71 220 78Q224 86 224 87Q224 91 211 99Q198 108 198 113Q198 115 198 117T203 129Q221 171 221 207Q221 231 208 247T180 263Q161 263 148 244T135 197Q135 181 137 170T148 142Q154 131 156 126T158 117Q158 107 144 87Q132 68 119 57T98 45Q85 45
85 63Q85 74 93 117Q98 137 102 159T109 192L115 213Q116 217 116 222Q116 233 105 233ZM180 196V194L178 177Q175 158 169 158Q164 158 161 170L158 181Q156 189 156 194Q156 205 160 213T169 222Q176 222 179 207Q179 203 179 201T180 196Z" />
<glyph unicode="w" glyph-name="w" horiz-adv-x="394" d="M258 142L268 190L271 211L273 220V223Q273 233 261 233H259L217 229Q200 228 197 213L194 201Q192 196 190 189T183 170Q176 155 171 144T161 125Q149 105 133 88Q115 68 103 68Q92 68 92 81Q92 90 94
105T100 135L109 174L115 202Q117 210 118 213T119 218V220Q119 232 107 232H105L51 228Q44 227 41 223T35 205Q31 185 28 166T20 129Q14 103 12 91T8 61Q7 56 7 52Q7 48 7 44Q7 24 18 12T46 0Q55 0 69 6T97 22T126 44T151 71Q156 78 160 78Q165 78 165 69V55Q165
32 176 18T207 4Q221 4 241 12T284 34Q307 50 320 65Q330 76 333 79T342 82Q346 82 348 81T360 74Q370 69 374 69Q376 69 381 72Q387 78 387 84Q387 91 377 98Q368 102 365 105Q360 108 360 112Q360 115 364 122Q371 133 376 155T382 195Q382 225 369 245T337 265Q319
265 307 246T294 200Q294 193 295 187T299 169Q302 152 306 145L316 125Q318 119 318 116Q318 107 310 93T291 68Q283 60 274 55T259 50Q247 50 247 71Q247 74 248 81T250 94Q252 111 254 123T258 142ZM332 224Q339 224 340 207L341 190Q343 157 332 157Q327 157
324 168T320 195Q320 224 332 224Z" />
<glyph unicode="x" glyph-name="x" horiz-adv-x="263" d="M202 226L156 178L151 173Q145 169 145 169Q142 169 135 178L107 213Q99 223 94 226T81 230Q66 230 33 197Q7 171 7 159Q7 153 13 146Q18 141 22 141Q26 141 29 150Q32 162 43 162Q51 162 58 151L80 118Q85
109 85 105Q85 101 83 98Q81 93 80 92L22 31Q15 24 15 19Q15 12 21 6Q24 2 29 2Q33 2 35 3T44 9L101 56Q107 61 112 61Q118 61 122 54L157 3Q161 -3 169 -3Q176 -3 182 0L223 27Q229 31 229 37Q229 41 226 46L186 106L183 111Q181 115 181 118Q181 121 183 125T188
132L251 181Q257 185 257 189Q257 193 250 200L225 228Q225 227 221 231Q215 233 214 233Q209 233 202 226Z" />
<glyph unicode="y" glyph-name="y" horiz-adv-x="286" d="M267 229H261L214 222Q200 221 195 199Q189 171 178 145T154 100T127 69T101 57Q91 57 91 73Q91 79 93 92T101 140Q106 163 108 177T115 205Q118 212 118 218Q118 230 105 230H103L53 223Q45 221 41 217T35
199Q34 196 33 191T30 177Q25 157 20 130T11 81Q9 70 8 60T7 42Q7 20 19 8T52 -5Q72 -5 100 12Q112 20 125 30T145 49Q153 58 156 61T162 64Q165 64 165 56Q165 51 164 48L161 30Q160 22 153 -3Q149 -17 147 -28T142 -51Q137 -70 135 -82T130 -100T127 -112T125
-121Q125 -134 135 -134H137L142 -133L196 -124Q210 -122 213 -105L277 206Q278 211 278 213T279 218Q279 229 267 229Z" />
<glyph unicode="z" glyph-name="z" horiz-adv-x="297" d="M94 166Q99 166 109 164L131 156Q133 156 137 155T149 152Q163 149 168 146T173 138Q173 133 168 130T155 126Q147 126 134 129Q131 130 127 130Q119 130 113 122Q108 114 108 107Q108 95 121 95H130H131Q142
95 142 88Q142 83 136 79T120 74H104Q84 74 67 70T36 58T15 42T7 22Q7 6 20 -3T54 -13Q63 -13 71 -11T97 0Q120 11 128 11Q132 11 136 10T153 5Q170 0 186 -2T215 -4Q229 -4 235 0T253 22Q263 38 269 51T276 68Q276 75 269 75Q267 75 264 75T256 72Q248 70 239
69T216 67Q193 67 184 69T175 80Q175 87 182 91T200 95Q203 95 206 95T212 94Q216 93 218 93T222 92Q230 92 236 100Q243 109 243 117Q243 126 227 126H220Q211 126 211 132Q211 144 228 151L253 161Q267 167 278 183T290 213Q290 232 268 232Q254 232 241 222L230
213Q227 210 222 210Q221 210 215 212Q183 223 168 226T139 230Q119 230 102 223T71 204T49 176T41 142Q41 116 54 116Q59 116 63 119T68 128Q68 133 67 136Q65 144 65 147Q65 155 73 160T94 166ZM43 18V19Q43 26 58 26Q73 26 73 20Q73 18 69 16Q64 13 56 13Q43
13 43 18Z" />
<glyph unicode="{" glyph-name="braceleft" horiz-adv-x="205" d="M50 417Q48 392 39 378T7 350Q21 336 26 328T36 303Q40 288 40 270V262L23 33Q22 23 22 14Q22 5 22 -3Q22 -30 33 -39T76 -48Q107 -48 127 -43T147 -29Q147 -20 137 -20H135H129Q111 -20 93 -14Q85
-12 80 -7Q76 -1 76 10Q76 15 76 22T78 41L94 262Q95 267 95 273Q95 279 95 284Q95 309 90 321T65 350Q86 362 94 376T105 417L120 626Q121 640 122 646T126 658Q130 665 135 669Q137 670 149 671T185 676Q199 678 199 687Q199 692 197 693T183 695H122Q96 695
83 677T66 613L50 417Z" />
<glyph unicode="}" glyph-name="braceright" horiz-adv-x="204" d="M177 325Q181 330 185 336T197 350Q177 374 171 385T165 412V417L180 613V619Q180 652 164 673T124 695H63Q52 695 50 694T47 687Q47 678 61 676Q108 670 111 669Q116 665 120 658Q121 656 122
653T124 645Q125 639 125 635T126 628V626L110 417V411Q110 391 117 378T142 350Q126 333 119 323T107 297Q103 289 102 280T99 262L83 42L79 11Q77 -4 76 -7Q74 -9 71 -10T63 -14Q43 -20 24 -20H19H17Q6 -20 6 -29Q6 -37 26 -42T79 -48Q128 -48 131 -25L134 -2L138
34L154 262Q155 276 161 294T177 325Z" />
<glyph unicode="~" glyph-name="asciitilde" horiz-adv-x="362" d="M243 176Q279 176 305 194T355 255L303 310Q288 279 277 269T247 258Q235 258 220 263Q217 265 210 268T191 277Q168 288 148 293T111 298Q79 298 54 279T7 218L58 161Q70 190 83 202T113 214Q122
214 133 210T174 194Q198 183 212 180T243 176Z" />
</font>
</defs>
</svg>
